<svg width="680" height="76" viewBox="0 0 680 76" fill="none" xmlns="http://www.w3.org/2000/svg">
<path d="M590 76H680V56H620V48H680V28H620V20H680V0H590V76Z" fill="white"/>
<path d="M516 0H484L520 76H550L586 0H554L536 48L516 0Z" fill="white"/>
<path d="M480 0H450V76H480V0Z" fill="white"/>
<path d="M266 28H310C319.333 28 338 35.4 338 53C338 70.6 319.333 76 310 76H238V56H310V48H266C256.667 48 238 40.6 238 23C238 5.4 256.667 0 266 0H338V20H266V28Z" fill="white"/>
<path d="M370 28H414C423.333 28 442 35.4 442 53C442 70.6 423.333 76 414 76H342V56H414V48H370C360.667 48 342 40.6 342 23C342 5.4 360.667 0 370 0H442V20H370V28Z" fill="white"/>
<path d="M164 76H132L168 0H198L234 76H202L184 28L164 76Z" fill="white"/>
<path d="M0 0V76H28V28L50 76H78L100 28V76H128V0H86L64 48L42 0H0Z" fill="white"/>
</svg>
