<svg xmlns="http://www.w3.org/2000/svg" xmlns:xlink="http://www.w3.org/1999/xlink" width="189.146" height="47.751" viewBox="0 0 189.146 47.751">
  <defs>
    <clipPath id="clip-path">
      <rect id="Rectangle_153" data-name="Rectangle 153" width="189.146" height="47.751" fill="none"/>
    </clipPath>
  </defs>
  <g id="Artwork_40" data-name="Artwork 40" transform="translate(94.573 23.875)" style="isolation: isolate">
    <g id="Group_1018" data-name="Group 1018" transform="translate(-94.573 -23.875)" clip-path="url(#clip-path)">
      <path id="Path_2365" data-name="Path 2365" d="M3.249,19.949l-.58,3.017H9.979l.348-1.741a34.813,34.813,0,0,0,3.829,4.293L8.819,29.464l.348-1.741-7.311-.232L0,37.123H4.293l1.16-6.034c5.686.7,10.792-.928,11.024-6.614S8.239,19.369,3.249,19.949Zm99.33.7-4.526,1.276-.464,2.437H96.081l-.7,3.365h1.509l-.928,4.526c-.464,2.2-.464,3.829,1.044,4.758s2.9.58,4.758.232l.58-3.481c-2.089.232-2.437-.232-1.857-2.437l.7-3.481h2.553l.7-3.365h-2.553ZM50.245,26.331c0-.58.116-1.276.116-1.973H46.532c-.58,4.293-1.392,8.239-2.2,12.764h4.293l.928-5.454c.464-2.437,1.509-4.061,2.669-4.061s1.044,1.509.812,2.669l-1.276,6.846h4.177l1.044-5.454c.464-2.437,1.392-4.061,2.553-4.061s1.044,1.392.812,2.669l-1.276,6.846h4.293L64.75,29.7c.7-3.6-.232-5.57-2.9-5.686a5.222,5.222,0,0,0-4.293,2.2c-.348-2.669-5.106-3.133-7.311,0Zm24.02-2.2A7.543,7.543,0,0,0,66.607,31.9c0,3.6,2.089,5.454,5.8,5.454A11.952,11.952,0,0,0,77.4,36.31l-.232-3.133c-1.392.812-5.918,1.509-6.382-.7,5.222.116,8.123-1.16,8.123-4.41S76.819,24.01,74.15,24.01m11.72,2.321a10.677,10.677,0,0,1,.116-1.973H82.04c-.7,4.293-1.509,8.239-2.321,12.764h4.41l1.044-5.454c.464-2.669,1.625-4.061,2.669-4.061s1.044,1.392.812,2.553l-1.276,6.962h4.41L93.18,29.7c.7-3.365-.232-4.99-1.857-5.454a5.338,5.338,0,0,0-5.454,2.089ZM16.478,32.945c0,2.785,1.625,4.526,3.945,4.526a4.526,4.526,0,0,0,3.945-2.553h.116a19.983,19.983,0,0,1-.116,2.2H28.43a32.259,32.259,0,0,1,.464-5.686l1.392-6.73c-6.5-2.2-13.693.348-13.809,8.123Zm15.2-8.471,2.437,11.372a.7.7,0,0,1,0,.58,6.73,6.73,0,0,1-3.945,2.785l.928,3.829a8.935,8.935,0,0,0,4.293-2.2A25.529,25.529,0,0,0,40.5,33.293l4.41-8.935H40.266c-1.044,2.553-2.089,5.454-2.9,7.891-.464-2.669-.7-5.686-.928-7.891Zm43.283,3.713c0,.812-.928,1.16-3.6,1.16.116-1.973,3.481-2.785,3.6-1.16m-49.665-.7-.58,2.553c-.58,3.017-1.625,3.829-2.437,3.829S21,33.293,21,32.017,22.976,26.8,25.3,27.491" transform="translate(0 3.143)" fill="#fff"/>
      <path id="Path_2366" data-name="Path 2366" d="M132.648,9.62c-5.454-.7-13.577,1.625-16.71,7.891,5.454-6.266,16.942-4.293,19.959-3.6C141-1.52,164.211,3.122,162.238,17.627c19.959,2.089,16.71,25.993-.58,26.341-27.269,1.276-80.068-.7-109.658.116,33.3,1.741,66.491,2.669,99.795,3.481,7.775.232,16.246,1.044,22.28-3.249s8.819-15.665,4.293-22.512a19.147,19.147,0,0,0-11.488-8.123C163.167-3.724,139.959-3.724,132.648,9.62ZM99.693,31.668c0,7.891,6.266,10.444,12.648,8.007l-.348-3.6c-4.99,1.857-8.239-.348-8.239-4.874.116-7.543,5.454-9.4,9.863-7.659l1.044-3.6c-7.891-3.133-15.2,2.785-15.085,11.836ZM117.911,21.34l-3.6,18.915h3.829l3.6-18.915Zm44.792,0-1.16,5.918L159.8,26.91a8.355,8.355,0,0,0-8.239,8.7c0,3.133,1.857,4.874,4.061,4.874a4.99,4.99,0,0,0,4.293-2.437,11.72,11.72,0,0,1-.116,2.089h3.481a43.521,43.521,0,0,1,.58-5.106l2.669-13.925Zm-33.072,5.57c-4.642,0-7.775,3.713-7.775,8.239a5.106,5.106,0,0,0,5.57,5.338c5.454-.116,7.775-4.41,7.775-8.239a5.222,5.222,0,0,0-5.57-5.338m9.051.348-1.392,7.311c-.7,3.6-.116,6.034,3.133,6.034a5.57,5.57,0,0,0,4.526-2.437,11.253,11.253,0,0,1-.232,2.089h3.365c.232-1.16.348-2.553.7-4.293l1.625-8.819h-3.829l-1.16,6.034c-.464,2.553-1.857,4.177-3.133,4.177s-1.509-1.509-1.16-3.249l1.276-6.962Zm22.4,3.133-.7,3.481c-.464,2.437-1.857,3.713-3.017,3.713s-1.741-.928-1.741-2.437c.116-3.945,3.133-6.15,5.454-4.642Zm-31.911-.464a2.162,2.162,0,0,1,2.089,2.437c0,1.16-1.16,5.338-3.249,5.338a2.089,2.089,0,0,1-2.089-2.553c0-1.857,1.044-5.222,3.365-5.222" transform="translate(8.341 0.011)" fill="#1292f8"/>
    </g>
  </g>
</svg>
