<svg xmlns="http://www.w3.org/2000/svg" viewBox="0 0 60 60" id="Coins">
  <path fill="#595bd4" d="M5 36.88v-2.95c0-1.53 1.24-2.77 2.76-2.77H26.1a15.71 15.71 0 0 0-.94 5.37c0 1.07.11 2.11.31 3.12H7.76C6.24 39.65 5 38.41 5 36.88zm27.8 13.24c-.38.21-.83.33-1.3.33H7.76C6.24 50.45 5 49.21 5 47.69v-2.96c0-1.52 1.24-2.76 2.76-2.76h18.36c1.24 3.41 3.62 6.28 6.68 8.15zm1.31-27.9a16.088 16.088 0 0 0-6.97 6.62H7.76C6.24 28.84 5 27.6 5 26.08v-2.96c0-1.52 1.24-2.76 2.76-2.76H31.5c1.2 0 2.23.78 2.61 1.86zm.15-9.9v2.95c0 1.53-1.24 2.77-2.76 2.77H7.76C6.24 18.04 5 16.8 5 15.27v-2.95c0-1.53 1.24-2.77 2.76-2.77H31.5c1.52 0 2.76 1.24 2.76 2.77z" class="color2c79c1 svgShape"></path>
  <path fill="#fe9526" d="M41.08 22.61c-7.68 0-13.92 6.25-13.92 13.92 0 7.68 6.24 13.92 13.92 13.92 7.67 0 13.92-6.24 13.92-13.92 0-7.67-6.25-13.92-13.92-13.92zm.283 12.963c.985.292 3.985 1.182 3.985 4.076 0 1.936-1.399 3.554-3.27 3.99v.903a1 1 0 0 1-2 0v-.902c-1.872-.437-3.27-2.055-3.27-3.991a1 1 0 0 1 2 0c0 1.167 1.018 2.117 2.27 2.117s2.27-.95 2.27-2.117c0-.693-.304-1.49-2.554-2.159-2.645-.784-3.986-2.155-3.986-4.075 0-1.937 1.398-3.554 3.27-3.991v-.902a1 1 0 0 1 2 0v.902c1.871.437 3.27 2.054 3.27 3.99a1 1 0 0 1-2 0c0-1.166-1.018-2.116-2.27-2.116s-2.27.95-2.27 2.117c0 .382 0 1.4 2.555 2.158z" class="color3a4654 svgShape"></path>
</svg>
